<?xml version="1.0" encoding="utf-8"?>
<!-- Generator: Adobe Illustrator 21.0.2, SVG Export Plug-In . SVG Version: 6.00 Build 0)  -->
<svg version="1.1" id="Layer_1" xmlns="http://www.w3.org/2000/svg" xmlns:xlink="http://www.w3.org/1999/xlink" x="0px" y="0px"
	 viewBox="0 0 274.3 36" style="enable-background:new 0 0 274.3 36;" xml:space="preserve">
<style type="text/css">
	.st0{fill:#FFFFFF;}
</style>
<title>Logo_White_SM</title>
<g>
	<path class="st0" d="M23.3,29.9H10.5l-1.7,5.4H0.1L11.9,0.8h10.1l11.8,34.6h-8.6L23.3,29.9z M20.9,22.5l-4-12.7L13,22.5L20.9,22.5z
		"/>
	<path class="st0" d="M48.8,24H45v11.4h-8V0.7h13.7c6.5,0,11.8,5.3,11.9,11.8c0,0,0,0,0,0.1c-0.1,4.3-2.5,8.2-6.4,10l7.4,12.7h-8.5
		L48.8,24z M45,17.1H51c2.5-0.3,4.2-2.5,3.9-5c-0.3-2-1.9-3.6-3.9-3.9H45V17.1z"/>
	<path class="st0" d="M66.5,18C66.2,8.3,73.9,0.3,83.6,0c0.3,0,0.6,0,0.9,0c6-0.1,11.6,2.9,14.8,8L92.5,12c-1.7-2.8-4.8-4.4-8-4.3
		c-5.7,0-10.3,4.6-10.3,10.3s4.6,10.3,10.3,10.3c3.3,0.2,6.3-1.5,8-4.3l6.9,3.9c-3.2,5.1-8.8,8.1-14.8,8c-9.7,0.2-17.7-7.4-18-17.1
		C66.5,18.6,66.5,18.3,66.5,18z"/>
	<path class="st0" d="M130,0.7v34.6H122V21.6h-10.9v13.7h-7.9V0.7h7.9V14H122V0.7H130z"/>
	<path class="st0" d="M178.2,8.4h-10.1v27h-7.9v-27h-10V0.7h28.1L178.2,8.4z"/>
	<path class="st0" d="M206.8,27.7v7.6h-22.9V0.7h22.7v7.6h-14.8v5.7h12.4v7.5h-12.4v6.1L206.8,27.7z"/>
	<path class="st0" d="M210.1,18c-0.2-9.7,7.4-17.7,17.1-18c0.3,0,0.6,0,0.9,0c6-0.1,11.6,2.9,14.8,8l-6.9,3.9
		c-1.7-2.8-4.8-4.4-8-4.3c-5.7,0-10.3,4.6-10.3,10.3s4.6,10.3,10.3,10.3c3.3,0.2,6.3-1.5,8-4.3L243,28c-3.2,5.1-8.8,8.1-14.8,8
		c-9.7,0.2-17.7-7.4-18-17.1C210.1,18.6,210.1,18.3,210.1,18z"/>
	<rect x="136.6" y="0.7" class="st0" width="7.7" height="34.6"/>
	<polygon class="st0" points="255.5,0.7 255.5,15.4 266.4,13.8 266.4,0.7 274.3,0.7 274.3,35.4 266.4,35.4 266.4,20.7 255.5,22.3 
		255.5,35.4 247.6,35.4 247.6,0.7 	"/>
</g>
</svg>
